<?xml version="1.0" standalone="no"?>
<!DOCTYPE svg PUBLIC "-//W3C//DTD SVG 20010904//EN"
 "http://www.w3.org/TR/2001/REC-SVG-20010904/DTD/svg10.dtd">
<svg version="1.0" xmlns="http://www.w3.org/2000/svg"
 width="600.000000pt" height="230.000000pt" viewBox="0 0 600.000000 230.000000"
 preserveAspectRatio="xMidYMid meet">
<metadata>
Created by potrace 1.15, written by Peter Selinger 2001-2017
</metadata>
<g transform="translate(0.000000,230.000000) scale(0.100000,-0.100000)"
fill="#000000" stroke="none">
<path d="M2440 1748 c0 -7 21 -92 46 -188 26 -96 61 -229 78 -295 38 -141 56
-158 79 -73 70 253 148 560 143 565 -4 4 -10 2 -15 -3 -8 -8 -63 -201 -131
-467 -13 -48 -25 -85 -27 -83 -3 2 -37 127 -76 277 -40 150 -78 274 -85 277
-6 2 -12 -2 -12 -10z"/>
<path d="M2822 1747 c-5 -6 -26 -75 -46 -152 -20 -77 -54 -207 -76 -290 -45
-172 -44 -165 -27 -165 8 0 19 20 25 48 6 26 42 163 80 305 63 235 72 289 44
254z"/>
<path d="M2877 1753 c-5 -8 -33 -112 -97 -358 -18 -66 -40 -151 -50 -188 -17
-61 -17 -68 -3 -65 11 2 23 30 38 88 85 324 135 516 135 523 0 9 -18 9 -23 0z"/>
<path d="M2930 1756 c0 -1 -36 -140 -80 -307 -44 -167 -80 -305 -80 -306 0 -2
6 -3 13 -3 9 0 24 38 42 108 15 59 31 110 35 115 3 4 21 -45 40 -108 24 -85
37 -115 49 -115 13 0 33 65 97 303 69 259 85 341 59 315 -3 -3 -21 -61 -39
-129 l-33 -124 -21 70 c-11 39 -28 96 -36 128 -11 36 -22 57 -31 57 -8 0 -15
-2 -15 -4z"/>
<path d="M3156 1752 c-2 -4 -25 -88 -51 -187 -93 -353 -103 -391 -125 -455
-61 -180 23 -376 198 -458 49 -23 70 -27 152 -27 87 0 101 3 160 32 76 37 146
103 136 128 -5 14 -15 8 -54 -30 -72 -73 -138 -100 -242 -100 -103 0 -170 27
-239 96 -69 69 -96 136 -96 239 0 72 4 94 28 144 15 32 30 57 33 53 3 -3 -4
-39 -15 -79 -27 -94 -27 -162 0 -232 24 -64 87 -134 150 -167 52 -26 164 -37
225 -20 77 21 177 103 159 131 -4 6 -26 -7 -57 -35 -112 -100 -265 -100 -377
1 -91 82 -115 211 -62 329 18 41 24 47 32 33 6 -11 3 -29 -11 -60 -25 -56 -26
-142 -1 -200 22 -53 100 -124 150 -138 46 -13 116 -13 162 0 45 13 134 89 120
103 -6 6 -24 -2 -53 -25 -49 -40 -95 -58 -146 -58 -124 0 -222 97 -222 221 0
187 212 285 361 167 33 -26 54 -37 61 -30 13 13 -76 89 -121 102 -86 24 -191
1 -248 -52 -17 -16 -23 -18 -23 -7 0 29 31 58 85 78 105 39 211 20 292 -53 33
-29 54 -42 62 -36 10 6 3 18 -26 47 -86 86 -212 115 -326 75 -53 -19 -58 -19
-55 -4 5 28 93 53 174 49 87 -5 166 -39 222 -96 65 -67 88 -50 26 19 -91 100
-267 138 -396 85 -15 -6 -17 -3 -9 21 13 40 101 378 101 387 0 4 -6 7 -13 7
-8 0 -21 -34 -35 -87 -75 -301 -100 -379 -116 -362 -5 4 63 278 99 401 9 31
10 50 4 54 -6 3 -12 4 -14 3 -3 -5 -31 -105 -85 -314 -38 -147 -64 -214 -77
-202 -3 3 25 116 61 251 36 135 66 250 66 256 0 12 -17 13 -24 2z"/>
<path d="M3242 1159 c-112 -56 -137 -228 -45 -311 54 -49 149 -61 219 -27 51
24 68 43 60 65 -6 15 -10 14 -34 -8 -40 -37 -65 -48 -115 -48 -84 0 -157 75
-157 160 0 85 73 160 157 160 49 0 75 -11 113 -46 17 -15 30 -20 39 -15 11 7
9 14 -13 36 -57 57 -149 71 -224 34z"/>
</g>
</svg>
